# xmcd
#
# Track frame offsets:
#	150
#	13867
#	29177
#	46806
#	66970
#	88791
#	107731
#	130150
#	150969
#	167792
#	187087
#	204683
#	224022
#	243386
#	263451
#	280145
#	295209
#	317895
#	332180
#
# Disc length: 4669 seconds
# Revision: 0
# Processed by: cddbd v1.5.2PL0 Copyright (c) Steve Scherf et al.
# Submitted via: dBpowerAMP V12.0
#
DISCID=25123b13
DTITLE=Willie Hutch - Concert In Blues - Color Her Sunshine
DYEAR=2015
DGENRE=Soul
TTITLE0=Party Down
TTITLE1=I Finally Made The Headlines
TTITLE2=Baby, Come Home
TTITLE3=Stormy Weather
TTITLE4=I Wish You Love
TTITLE5=Come On Let´s Do The Thang
TTITLE6=Dont Let A Little Money Keep You Acting Funny
TTITLE7=Stormy Monday
TTITLE8=Precious Pearl
TTITLE9=Shake, Ratttle And Roll
TTITLE10=Come On Girl Let's Get It On
TTITLE11=I Feel Like We Can Make It
TTITLE12=Color Her Sunshine
TTITLE13=I Like Everything About You
TTITLE14=Shake It, Shake It
TTITLE15=Let Me Be The One
TTITLE16=She's Just Doing Her Thing
TTITLE17=We Can Make It Baby
TTITLE18=I'm Gonna Be Around
EXTD=
EXTT0=
EXTT1=
EXTT2=
EXTT3=
EXTT4=
EXTT5=
EXTT6=
EXTT7=
EXTT8=
EXTT9=
EXTT10=
EXTT11=
EXTT12=
EXTT13=
EXTT14=
EXTT15=
EXTT16=
EXTT17=
EXTT18=
PLAYORDER=
